<mxfile host="app.diagrams.net" modified="2022-11-03T12:19:02.685Z" agent="5.0 (Macintosh; Intel Mac OS X 10_15_7) AppleWebKit/537.36 (KHTML, like Gecko) Chrome/107.0.0.0 Safari/537.36" etag="Tqa7vti-5WDO5kaqj2gy" version="20.4.0" type="github">
  <diagram id="OmJOjnzRRDfr44sqibyR" name="第 1 页">
    <mxGraphModel dx="1234" dy="826" grid="1" gridSize="10" guides="1" tooltips="1" connect="1" arrows="1" fold="1" page="1" pageScale="1" pageWidth="3300" pageHeight="4681" math="0" shadow="0">
      <root>
        <mxCell id="0" />
        <mxCell id="1" parent="0" />
        <mxCell id="B3txuUKtqFChG4fmERYr-1" value="table A" style="rounded=1;whiteSpace=wrap;html=1;" vertex="1" parent="1">
          <mxGeometry x="340" y="230" width="120" height="60" as="geometry" />
        </mxCell>
        <mxCell id="B3txuUKtqFChG4fmERYr-2" value="part1-rep1" style="rounded=0;whiteSpace=wrap;html=1;" vertex="1" parent="1">
          <mxGeometry x="220" y="310" width="100" height="40" as="geometry" />
        </mxCell>
        <mxCell id="B3txuUKtqFChG4fmERYr-5" value="part1-rep2" style="rounded=0;whiteSpace=wrap;html=1;" vertex="1" parent="1">
          <mxGeometry x="220" y="360" width="100" height="40" as="geometry" />
        </mxCell>
        <mxCell id="B3txuUKtqFChG4fmERYr-6" value="part1-rep3" style="rounded=0;whiteSpace=wrap;html=1;" vertex="1" parent="1">
          <mxGeometry x="220" y="410" width="100" height="40" as="geometry" />
        </mxCell>
        <mxCell id="B3txuUKtqFChG4fmERYr-11" value="part2-rep1" style="rounded=0;whiteSpace=wrap;html=1;" vertex="1" parent="1">
          <mxGeometry x="350" y="310" width="100" height="40" as="geometry" />
        </mxCell>
        <mxCell id="B3txuUKtqFChG4fmERYr-12" value="part2-rep2" style="rounded=0;whiteSpace=wrap;html=1;" vertex="1" parent="1">
          <mxGeometry x="350" y="360" width="100" height="40" as="geometry" />
        </mxCell>
        <mxCell id="B3txuUKtqFChG4fmERYr-13" value="part2-rep3" style="rounded=0;whiteSpace=wrap;html=1;" vertex="1" parent="1">
          <mxGeometry x="350" y="410" width="100" height="40" as="geometry" />
        </mxCell>
        <mxCell id="B3txuUKtqFChG4fmERYr-14" value="part3-rep1" style="rounded=0;whiteSpace=wrap;html=1;" vertex="1" parent="1">
          <mxGeometry x="480" y="310" width="100" height="40" as="geometry" />
        </mxCell>
        <mxCell id="B3txuUKtqFChG4fmERYr-15" value="part3-rep2" style="rounded=0;whiteSpace=wrap;html=1;" vertex="1" parent="1">
          <mxGeometry x="480" y="360" width="100" height="40" as="geometry" />
        </mxCell>
        <mxCell id="B3txuUKtqFChG4fmERYr-16" value="part3-rep3" style="rounded=0;whiteSpace=wrap;html=1;" vertex="1" parent="1">
          <mxGeometry x="480" y="410" width="100" height="40" as="geometry" />
        </mxCell>
        <mxCell id="B3txuUKtqFChG4fmERYr-17" value="" style="shape=curlyBracket;whiteSpace=wrap;html=1;rounded=1;flipH=1;" vertex="1" parent="1">
          <mxGeometry x="630" y="320" width="20" height="120" as="geometry" />
        </mxCell>
        <mxCell id="B3txuUKtqFChG4fmERYr-19" value="raft" style="text;html=1;resizable=0;autosize=1;align=center;verticalAlign=middle;points=[];fillColor=none;strokeColor=none;rounded=0;" vertex="1" parent="1">
          <mxGeometry x="660" y="365" width="40" height="30" as="geometry" />
        </mxCell>
        <mxCell id="B3txuUKtqFChG4fmERYr-24" value="ip A" style="rounded=1;whiteSpace=wrap;html=1;" vertex="1" parent="1">
          <mxGeometry x="80" y="310" width="80" height="40" as="geometry" />
        </mxCell>
        <mxCell id="B3txuUKtqFChG4fmERYr-25" value="ip B" style="rounded=1;whiteSpace=wrap;html=1;" vertex="1" parent="1">
          <mxGeometry x="80" y="360" width="80" height="40" as="geometry" />
        </mxCell>
        <mxCell id="B3txuUKtqFChG4fmERYr-26" value="ip C" style="rounded=1;whiteSpace=wrap;html=1;" vertex="1" parent="1">
          <mxGeometry x="80" y="410" width="80" height="40" as="geometry" />
        </mxCell>
        <mxCell id="B3txuUKtqFChG4fmERYr-27" value="table A" style="rounded=1;whiteSpace=wrap;html=1;" vertex="1" parent="1">
          <mxGeometry x="350" y="570" width="120" height="60" as="geometry" />
        </mxCell>
        <mxCell id="B3txuUKtqFChG4fmERYr-28" value="part1-rep1" style="rounded=0;whiteSpace=wrap;html=1;dashed=1;" vertex="1" parent="1">
          <mxGeometry x="230" y="650" width="100" height="40" as="geometry" />
        </mxCell>
        <mxCell id="B3txuUKtqFChG4fmERYr-29" value="part1-rep2" style="rounded=0;whiteSpace=wrap;html=1;" vertex="1" parent="1">
          <mxGeometry x="230" y="700" width="100" height="40" as="geometry" />
        </mxCell>
        <mxCell id="B3txuUKtqFChG4fmERYr-30" value="part1-rep3" style="rounded=0;whiteSpace=wrap;html=1;" vertex="1" parent="1">
          <mxGeometry x="230" y="750" width="100" height="40" as="geometry" />
        </mxCell>
        <mxCell id="B3txuUKtqFChG4fmERYr-31" value="part2-rep1" style="rounded=0;whiteSpace=wrap;html=1;dashed=1;" vertex="1" parent="1">
          <mxGeometry x="360" y="650" width="100" height="40" as="geometry" />
        </mxCell>
        <mxCell id="B3txuUKtqFChG4fmERYr-32" value="part2-rep2" style="rounded=0;whiteSpace=wrap;html=1;" vertex="1" parent="1">
          <mxGeometry x="360" y="700" width="100" height="40" as="geometry" />
        </mxCell>
        <mxCell id="B3txuUKtqFChG4fmERYr-33" value="part2-rep3" style="rounded=0;whiteSpace=wrap;html=1;" vertex="1" parent="1">
          <mxGeometry x="360" y="750" width="100" height="40" as="geometry" />
        </mxCell>
        <mxCell id="B3txuUKtqFChG4fmERYr-34" value="part3-rep1" style="rounded=0;whiteSpace=wrap;html=1;dashed=1;" vertex="1" parent="1">
          <mxGeometry x="490" y="650" width="100" height="40" as="geometry" />
        </mxCell>
        <mxCell id="B3txuUKtqFChG4fmERYr-35" value="part3-rep2" style="rounded=0;whiteSpace=wrap;html=1;" vertex="1" parent="1">
          <mxGeometry x="490" y="700" width="100" height="40" as="geometry" />
        </mxCell>
        <mxCell id="B3txuUKtqFChG4fmERYr-36" value="part3-rep3" style="rounded=0;whiteSpace=wrap;html=1;" vertex="1" parent="1">
          <mxGeometry x="490" y="750" width="100" height="40" as="geometry" />
        </mxCell>
        <mxCell id="B3txuUKtqFChG4fmERYr-37" value="" style="shape=curlyBracket;whiteSpace=wrap;html=1;rounded=1;flipH=1;" vertex="1" parent="1">
          <mxGeometry x="640" y="660" width="20" height="120" as="geometry" />
        </mxCell>
        <mxCell id="B3txuUKtqFChG4fmERYr-38" value="raft" style="text;html=1;resizable=0;autosize=1;align=center;verticalAlign=middle;points=[];fillColor=none;strokeColor=none;rounded=0;" vertex="1" parent="1">
          <mxGeometry x="670" y="705" width="40" height="30" as="geometry" />
        </mxCell>
        <mxCell id="B3txuUKtqFChG4fmERYr-39" value="ip A" style="rounded=1;whiteSpace=wrap;html=1;dashed=1;" vertex="1" parent="1">
          <mxGeometry x="90" y="650" width="80" height="40" as="geometry" />
        </mxCell>
        <mxCell id="B3txuUKtqFChG4fmERYr-40" value="ip B" style="rounded=1;whiteSpace=wrap;html=1;" vertex="1" parent="1">
          <mxGeometry x="90" y="700" width="80" height="40" as="geometry" />
        </mxCell>
        <mxCell id="B3txuUKtqFChG4fmERYr-41" value="ip C" style="rounded=1;whiteSpace=wrap;html=1;" vertex="1" parent="1">
          <mxGeometry x="90" y="750" width="80" height="40" as="geometry" />
        </mxCell>
        <mxCell id="B3txuUKtqFChG4fmERYr-42" value="" style="shape=flexArrow;endArrow=classic;html=1;rounded=0;" edge="1" parent="1">
          <mxGeometry width="50" height="50" relative="1" as="geometry">
            <mxPoint x="409.5" y="480" as="sourcePoint" />
            <mxPoint x="409.5" y="550" as="targetPoint" />
          </mxGeometry>
        </mxCell>
        <mxCell id="B3txuUKtqFChG4fmERYr-43" value="ip A重启" style="text;html=1;resizable=0;autosize=1;align=center;verticalAlign=middle;points=[];fillColor=none;strokeColor=none;rounded=0;dashed=1;" vertex="1" parent="1">
          <mxGeometry x="450" y="500" width="70" height="30" as="geometry" />
        </mxCell>
      </root>
    </mxGraphModel>
  </diagram>
</mxfile>
